<svg xmlns="http://www.w3.org/2000/svg" viewBox="0 0 146.000000 157.000000">
<g transform="translate(0.000000,157.000000) scale(0.100000,-0.100000)"
fill="#000000" stroke="none">
<path d="M531 1093 c-107 -185 -205 -362 -218 -393 -125 -311 149 -653 483
-601 282 44 455 341 351 600 -23 57 -408 731 -417 731 -3 0 -92 -152 -199
-337z m533 -519 c31 -30 9 -84 -34 -84 -24 0 -50 26 -50 50 0 43 54 65 84 34z
m-66 -186 c57 -57 -85 -177 -229 -194 -59 -7 -89 8 -89 44 0 32 17 43 83 57
63 13 135 52 166 89 16 19 52 21 69 4z"/>
</g>
</svg>
